<mxfile host="Electron" modified="2024-02-24T18:19:21.043Z" agent="Mozilla/5.0 (Windows NT 10.0; Win64; x64) AppleWebKit/537.36 (KHTML, like Gecko) draw.io/23.1.5 Chrome/120.0.6099.109 Electron/28.1.0 Safari/537.36" etag="jVkaS3xx2ynMaJmpS2RA" version="23.1.5" type="device" pages="2">
  <diagram name="Plant" id="ihxAGzubShbu-TSEwlbW">
    <mxGraphModel dx="1098" dy="826" grid="1" gridSize="10" guides="1" tooltips="1" connect="1" arrows="1" fold="1" page="1" pageScale="1" pageWidth="850" pageHeight="1100" math="0" shadow="0">
      <root>
        <mxCell id="0" />
        <mxCell id="1" parent="0" />
        <mxCell id="Bwy4fofsBDeQpx-u4jPV-1" value="System" style="rounded=0;whiteSpace=wrap;html=1;" parent="1" vertex="1">
          <mxGeometry x="440" y="200" width="80" height="40" as="geometry" />
        </mxCell>
        <mxCell id="Bwy4fofsBDeQpx-u4jPV-2" value="performance / cost / value" style="rounded=0;whiteSpace=wrap;html=1;" parent="1" vertex="1">
          <mxGeometry x="440" y="320" width="80" height="40" as="geometry" />
        </mxCell>
        <mxCell id="Bwy4fofsBDeQpx-u4jPV-3" value="algorithm" style="rounded=0;whiteSpace=wrap;html=1;" parent="1" vertex="1">
          <mxGeometry x="440" y="400" width="80" height="40" as="geometry" />
        </mxCell>
        <mxCell id="Bwy4fofsBDeQpx-u4jPV-7" value="" style="endArrow=classic;html=1;rounded=0;exitX=1;exitY=0.5;exitDx=0;exitDy=0;entryX=1;entryY=0.5;entryDx=0;entryDy=0;" parent="1" source="Bwy4fofsBDeQpx-u4jPV-1" target="Bwy4fofsBDeQpx-u4jPV-2" edge="1">
          <mxGeometry width="50" height="50" relative="1" as="geometry">
            <mxPoint x="590" y="240" as="sourcePoint" />
            <mxPoint x="640" y="190" as="targetPoint" />
            <Array as="points">
              <mxPoint x="560" y="220" />
              <mxPoint x="560" y="340" />
            </Array>
          </mxGeometry>
        </mxCell>
        <mxCell id="Bwy4fofsBDeQpx-u4jPV-8" value="" style="endArrow=classic;html=1;rounded=0;entryX=0;entryY=0.5;entryDx=0;entryDy=0;exitX=0;exitY=0.25;exitDx=0;exitDy=0;" parent="1" source="Bwy4fofsBDeQpx-u4jPV-2" target="Bwy4fofsBDeQpx-u4jPV-1" edge="1">
          <mxGeometry width="50" height="50" relative="1" as="geometry">
            <mxPoint x="400" y="270" as="sourcePoint" />
            <mxPoint x="450" y="220" as="targetPoint" />
            <Array as="points">
              <mxPoint x="400" y="330" />
              <mxPoint x="400" y="220" />
            </Array>
          </mxGeometry>
        </mxCell>
        <mxCell id="Bwy4fofsBDeQpx-u4jPV-10" value="u" style="text;html=1;strokeColor=none;fillColor=none;align=center;verticalAlign=middle;whiteSpace=wrap;rounded=0;" parent="1" vertex="1">
          <mxGeometry x="400" y="190" width="60" height="30" as="geometry" />
        </mxCell>
        <mxCell id="Bwy4fofsBDeQpx-u4jPV-11" value="x" style="text;html=1;strokeColor=none;fillColor=none;align=center;verticalAlign=middle;whiteSpace=wrap;rounded=0;" parent="1" vertex="1">
          <mxGeometry x="530" y="190" width="60" height="30" as="geometry" />
        </mxCell>
        <mxCell id="Bwy4fofsBDeQpx-u4jPV-12" value="" style="endArrow=classic;html=1;rounded=0;" parent="1" edge="1">
          <mxGeometry width="50" height="50" relative="1" as="geometry">
            <mxPoint x="560" y="220" as="sourcePoint" />
            <mxPoint x="600" y="220" as="targetPoint" />
          </mxGeometry>
        </mxCell>
        <mxCell id="Bwy4fofsBDeQpx-u4jPV-13" value="" style="endArrow=classic;html=1;rounded=0;entryX=0.75;entryY=1;entryDx=0;entryDy=0;exitX=0.75;exitY=0;exitDx=0;exitDy=0;" parent="1" source="Bwy4fofsBDeQpx-u4jPV-3" target="Bwy4fofsBDeQpx-u4jPV-2" edge="1">
          <mxGeometry width="50" height="50" relative="1" as="geometry">
            <mxPoint x="500" y="400" as="sourcePoint" />
            <mxPoint x="500" y="360" as="targetPoint" />
          </mxGeometry>
        </mxCell>
        <mxCell id="Bwy4fofsBDeQpx-u4jPV-14" value="theta" style="text;html=1;strokeColor=none;fillColor=none;align=center;verticalAlign=middle;whiteSpace=wrap;rounded=0;" parent="1" vertex="1">
          <mxGeometry x="490" y="370" width="60" height="30" as="geometry" />
        </mxCell>
        <mxCell id="Bwy4fofsBDeQpx-u4jPV-15" value="" style="endArrow=classic;html=1;rounded=0;entryX=0.25;entryY=0;entryDx=0;entryDy=0;exitX=0.25;exitY=1;exitDx=0;exitDy=0;" parent="1" source="Bwy4fofsBDeQpx-u4jPV-2" target="Bwy4fofsBDeQpx-u4jPV-3" edge="1">
          <mxGeometry width="50" height="50" relative="1" as="geometry">
            <mxPoint x="455" y="370" as="sourcePoint" />
            <mxPoint x="405" y="420" as="targetPoint" />
          </mxGeometry>
        </mxCell>
        <mxCell id="Bwy4fofsBDeQpx-u4jPV-16" value="P / J" style="text;html=1;strokeColor=none;fillColor=none;align=center;verticalAlign=middle;whiteSpace=wrap;rounded=0;" parent="1" vertex="1">
          <mxGeometry x="400" y="370" width="60" height="30" as="geometry" />
        </mxCell>
        <mxCell id="Bwy4fofsBDeQpx-u4jPV-18" value="" style="endArrow=classic;html=1;rounded=0;entryX=0;entryY=0.75;entryDx=0;entryDy=0;" parent="1" target="Bwy4fofsBDeQpx-u4jPV-3" edge="1">
          <mxGeometry width="50" height="50" relative="1" as="geometry">
            <mxPoint x="300" y="430" as="sourcePoint" />
            <mxPoint x="370" y="410" as="targetPoint" />
            <Array as="points">
              <mxPoint x="360" y="430" />
            </Array>
          </mxGeometry>
        </mxCell>
        <mxCell id="Bwy4fofsBDeQpx-u4jPV-19" value="" style="endArrow=classic;html=1;rounded=0;entryX=0;entryY=0.5;entryDx=0;entryDy=0;" parent="1" target="Bwy4fofsBDeQpx-u4jPV-2" edge="1">
          <mxGeometry width="50" height="50" relative="1" as="geometry">
            <mxPoint x="360" y="430" as="sourcePoint" />
            <mxPoint x="390" y="340" as="targetPoint" />
            <Array as="points">
              <mxPoint x="360" y="340" />
            </Array>
          </mxGeometry>
        </mxCell>
        <mxCell id="Bwy4fofsBDeQpx-u4jPV-20" value="" style="endArrow=classic;html=1;rounded=0;entryX=0;entryY=0.75;entryDx=0;entryDy=0;" parent="1" target="Bwy4fofsBDeQpx-u4jPV-2" edge="1">
          <mxGeometry width="50" height="50" relative="1" as="geometry">
            <mxPoint x="320" y="350" as="sourcePoint" />
            <mxPoint x="430" y="350" as="targetPoint" />
            <Array as="points" />
          </mxGeometry>
        </mxCell>
        <mxCell id="Bwy4fofsBDeQpx-u4jPV-21" value="" style="endArrow=classic;html=1;rounded=0;entryX=0;entryY=0.25;entryDx=0;entryDy=0;" parent="1" target="Bwy4fofsBDeQpx-u4jPV-3" edge="1">
          <mxGeometry width="50" height="50" relative="1" as="geometry">
            <mxPoint x="300" y="350" as="sourcePoint" />
            <mxPoint x="440" y="410" as="targetPoint" />
            <Array as="points">
              <mxPoint x="320" y="350" />
              <mxPoint x="320" y="410" />
            </Array>
          </mxGeometry>
        </mxCell>
        <mxCell id="Bwy4fofsBDeQpx-u4jPV-22" value="x initial" style="text;html=1;strokeColor=none;fillColor=none;align=center;verticalAlign=middle;whiteSpace=wrap;rounded=0;" parent="1" vertex="1">
          <mxGeometry x="240" y="330" width="60" height="30" as="geometry" />
        </mxCell>
        <mxCell id="Bwy4fofsBDeQpx-u4jPV-23" value="theta initial" style="text;html=1;strokeColor=none;fillColor=none;align=center;verticalAlign=middle;whiteSpace=wrap;rounded=0;" parent="1" vertex="1">
          <mxGeometry x="240" y="410" width="60" height="30" as="geometry" />
        </mxCell>
        <mxCell id="iQqW6SSRuvkUGBbJ-FG--1" value="" style="rounded=0;whiteSpace=wrap;html=1;fillColor=none;" parent="1" vertex="1">
          <mxGeometry x="200" y="170" width="440" height="310" as="geometry" />
        </mxCell>
      </root>
    </mxGraphModel>
  </diagram>
  <diagram id="6vVM6GKEMtXcj24UkQk7" name="Classes">
    <mxGraphModel dx="1098" dy="826" grid="1" gridSize="10" guides="1" tooltips="1" connect="1" arrows="1" fold="1" page="1" pageScale="1" pageWidth="850" pageHeight="1100" math="0" shadow="0">
      <root>
        <mxCell id="0" />
        <mxCell id="1" parent="0" />
        <mxCell id="fYd1chfewiqlS_mzUBW2-8" value="SystemModel" style="swimlane;childLayout=stackLayout;horizontal=1;startSize=50;horizontalStack=0;rounded=1;fontSize=14;fontStyle=0;strokeWidth=2;resizeParent=0;resizeLast=1;shadow=0;dashed=0;align=center;arcSize=4;whiteSpace=wrap;html=1;" parent="1" vertex="1">
          <mxGeometry x="645" y="810" width="160" height="160" as="geometry" />
        </mxCell>
        <mxCell id="fYd1chfewiqlS_mzUBW2-9" value="+Parameter K&lt;br&gt;+Parameter M&lt;br&gt;+Parameter C&lt;br&gt;&lt;br&gt;+dxCalculate()&lt;br&gt;+u2()&lt;br&gt;+u3()" style="align=left;strokeColor=none;fillColor=none;spacingLeft=4;fontSize=12;verticalAlign=top;resizable=0;rotatable=0;part=1;html=1;" parent="fYd1chfewiqlS_mzUBW2-8" vertex="1">
          <mxGeometry y="50" width="160" height="110" as="geometry" />
        </mxCell>
        <mxCell id="fYd1chfewiqlS_mzUBW2-10" value="displayData" style="swimlane;childLayout=stackLayout;horizontal=1;startSize=50;horizontalStack=0;rounded=1;fontSize=14;fontStyle=0;strokeWidth=2;resizeParent=0;resizeLast=1;shadow=0;dashed=0;align=center;arcSize=4;whiteSpace=wrap;html=1;" parent="1" vertex="1">
          <mxGeometry x="45" y="810" width="160" height="150" as="geometry" />
        </mxCell>
        <mxCell id="fYd1chfewiqlS_mzUBW2-11" value="+Graph Title&lt;br&gt;+Label 1&lt;br&gt;+Label 2&lt;br&gt;+Filename&lt;br&gt;+Data Vector 1&lt;br&gt;+Data Vector 2" style="align=left;strokeColor=none;fillColor=none;spacingLeft=4;fontSize=12;verticalAlign=top;resizable=0;rotatable=0;part=1;html=1;" parent="fYd1chfewiqlS_mzUBW2-10" vertex="1">
          <mxGeometry y="50" width="160" height="100" as="geometry" />
        </mxCell>
        <mxCell id="fYd1chfewiqlS_mzUBW2-12" value="controlAlgorithm" style="swimlane;childLayout=stackLayout;horizontal=1;startSize=50;horizontalStack=0;rounded=1;fontSize=14;fontStyle=0;strokeWidth=2;resizeParent=0;resizeLast=1;shadow=0;dashed=0;align=center;arcSize=4;whiteSpace=wrap;html=1;" parent="1" vertex="1">
          <mxGeometry x="340" y="310" width="160" height="130" as="geometry" />
        </mxCell>
        <mxCell id="fYd1chfewiqlS_mzUBW2-13" value="+Number of Theta Parameters&lt;br&gt;+Selected Algorithm&lt;br&gt;+Sensitivity Analysis (Y/N)&lt;br&gt;+theta&lt;br&gt;+State Space Variables x" style="align=left;strokeColor=none;fillColor=none;spacingLeft=4;fontSize=12;verticalAlign=top;resizable=0;rotatable=0;part=1;html=1;" parent="fYd1chfewiqlS_mzUBW2-12" vertex="1">
          <mxGeometry y="50" width="160" height="80" as="geometry" />
        </mxCell>
        <mxCell id="fYd1chfewiqlS_mzUBW2-14" value="FD" style="swimlane;childLayout=stackLayout;horizontal=1;startSize=50;horizontalStack=0;rounded=1;fontSize=14;fontStyle=0;strokeWidth=2;resizeParent=0;resizeLast=1;shadow=0;dashed=0;align=center;arcSize=4;whiteSpace=wrap;html=1;" parent="1" vertex="1">
          <mxGeometry x="45" y="510" width="160" height="160" as="geometry" />
        </mxCell>
        <mxCell id="fYd1chfewiqlS_mzUBW2-15" value="+Parameter Hetta&lt;br&gt;+Parameter Delta Theta&lt;br&gt;&lt;br&gt;+runAlgorithm()&lt;br&gt;+sensitivityAnalyzer()&lt;br&gt;+finiteDifferernces()&lt;br&gt;+performance()" style="align=left;strokeColor=none;fillColor=none;spacingLeft=4;fontSize=12;verticalAlign=top;resizable=0;rotatable=0;part=1;html=1;" parent="fYd1chfewiqlS_mzUBW2-14" vertex="1">
          <mxGeometry y="50" width="160" height="110" as="geometry" />
        </mxCell>
        <mxCell id="fYd1chfewiqlS_mzUBW2-16" value="SPSA" style="swimlane;childLayout=stackLayout;horizontal=1;startSize=50;horizontalStack=0;rounded=1;fontSize=14;fontStyle=0;strokeWidth=2;resizeParent=0;resizeLast=1;shadow=0;dashed=0;align=center;arcSize=4;whiteSpace=wrap;html=1;" parent="1" vertex="1">
          <mxGeometry x="245" y="510" width="160" height="220" as="geometry" />
        </mxCell>
        <mxCell id="fYd1chfewiqlS_mzUBW2-17" value="+Parameter Betta&lt;br&gt;+Parameter Gamma&lt;br&gt;+Parameter Alpha&lt;br style=&quot;border-color: var(--border-color);&quot;&gt;+Parameter A&lt;br&gt;+Parameter a&lt;br style=&quot;border-color: var(--border-color);&quot;&gt;+Parameter p&lt;br style=&quot;border-color: var(--border-color);&quot;&gt;&lt;br style=&quot;border-color: var(--border-color);&quot;&gt;+runAlgorithm()&lt;br style=&quot;border-color: var(--border-color);&quot;&gt;+sensitivityAnalyzer()&lt;br style=&quot;border-color: var(--border-color);&quot;&gt;+spsa()&lt;br style=&quot;border-color: var(--border-color);&quot;&gt;+performance()" style="align=left;strokeColor=none;fillColor=none;spacingLeft=4;fontSize=12;verticalAlign=top;resizable=0;rotatable=0;part=1;html=1;" parent="fYd1chfewiqlS_mzUBW2-16" vertex="1">
          <mxGeometry y="50" width="160" height="170" as="geometry" />
        </mxCell>
        <mxCell id="fYd1chfewiqlS_mzUBW2-18" value="LQR" style="swimlane;childLayout=stackLayout;horizontal=1;startSize=50;horizontalStack=0;rounded=1;fontSize=14;fontStyle=0;strokeWidth=2;resizeParent=0;resizeLast=1;shadow=0;dashed=0;align=center;arcSize=4;whiteSpace=wrap;html=1;" parent="1" vertex="1">
          <mxGeometry x="445" y="510" width="160" height="150" as="geometry" />
        </mxCell>
        <mxCell id="fYd1chfewiqlS_mzUBW2-19" value="+Matrix Q&lt;br&gt;+Matrix R&lt;br&gt;&lt;br&gt;+runAlgorithm()&lt;br&gt;+riccati()&lt;br&gt;+cost()" style="align=left;strokeColor=none;fillColor=none;spacingLeft=4;fontSize=12;verticalAlign=top;resizable=0;rotatable=0;part=1;html=1;" parent="fYd1chfewiqlS_mzUBW2-18" vertex="1">
          <mxGeometry y="50" width="160" height="100" as="geometry" />
        </mxCell>
        <mxCell id="fYd1chfewiqlS_mzUBW2-20" value="AC" style="swimlane;childLayout=stackLayout;horizontal=1;startSize=50;horizontalStack=0;rounded=1;fontSize=14;fontStyle=0;strokeWidth=2;resizeParent=0;resizeLast=1;shadow=0;dashed=0;align=center;arcSize=4;whiteSpace=wrap;html=1;" parent="1" vertex="1">
          <mxGeometry x="645" y="510" width="160" height="180" as="geometry" />
        </mxCell>
        <mxCell id="fYd1chfewiqlS_mzUBW2-21" value="+Parameter Gamma&lt;br style=&quot;border-color: var(--border-color);&quot;&gt;+Parameter k1&lt;br style=&quot;border-color: var(--border-color);&quot;&gt;+Parameter k2&lt;br style=&quot;border-color: var(--border-color);&quot;&gt;&lt;br style=&quot;border-color: var(--border-color);&quot;&gt;+runAlgorithm()&lt;br style=&quot;border-color: var(--border-color);&quot;&gt;+sensitivityAnalyzer()&lt;br style=&quot;border-color: var(--border-color);&quot;&gt;+adaptiveControl()&lt;br style=&quot;border-color: var(--border-color);&quot;&gt;+value()" style="align=left;strokeColor=none;fillColor=none;spacingLeft=4;fontSize=12;verticalAlign=top;resizable=0;rotatable=0;part=1;html=1;" parent="fYd1chfewiqlS_mzUBW2-20" vertex="1">
          <mxGeometry y="50" width="160" height="130" as="geometry" />
        </mxCell>
        <mxCell id="fYd1chfewiqlS_mzUBW2-22" value="" style="endArrow=classic;html=1;rounded=0;entryX=0.5;entryY=0;entryDx=0;entryDy=0;exitX=0.5;exitY=1;exitDx=0;exitDy=0;" parent="1" source="fYd1chfewiqlS_mzUBW2-13" target="fYd1chfewiqlS_mzUBW2-14" edge="1">
          <mxGeometry width="50" height="50" relative="1" as="geometry">
            <mxPoint x="245" y="430" as="sourcePoint" />
            <mxPoint x="295" y="380" as="targetPoint" />
            <Array as="points">
              <mxPoint x="420" y="470" />
              <mxPoint x="125" y="470" />
            </Array>
          </mxGeometry>
        </mxCell>
        <mxCell id="fYd1chfewiqlS_mzUBW2-23" value="" style="endArrow=classic;html=1;rounded=0;entryX=0.5;entryY=0;entryDx=0;entryDy=0;" parent="1" target="fYd1chfewiqlS_mzUBW2-16" edge="1">
          <mxGeometry width="50" height="50" relative="1" as="geometry">
            <mxPoint x="325" y="470" as="sourcePoint" />
            <mxPoint x="285" y="390" as="targetPoint" />
          </mxGeometry>
        </mxCell>
        <mxCell id="fYd1chfewiqlS_mzUBW2-24" value="" style="endArrow=classic;html=1;rounded=0;entryX=0.5;entryY=0;entryDx=0;entryDy=0;" parent="1" target="fYd1chfewiqlS_mzUBW2-20" edge="1">
          <mxGeometry width="50" height="50" relative="1" as="geometry">
            <mxPoint x="415" y="470" as="sourcePoint" />
            <mxPoint x="714.6600000000001" y="500" as="targetPoint" />
            <Array as="points">
              <mxPoint x="725" y="470" />
            </Array>
          </mxGeometry>
        </mxCell>
        <mxCell id="fYd1chfewiqlS_mzUBW2-25" value="" style="endArrow=classic;html=1;rounded=0;entryX=0.5;entryY=0;entryDx=0;entryDy=0;" parent="1" target="fYd1chfewiqlS_mzUBW2-18" edge="1">
          <mxGeometry width="50" height="50" relative="1" as="geometry">
            <mxPoint x="525" y="470" as="sourcePoint" />
            <mxPoint x="514.66" y="490" as="targetPoint" />
          </mxGeometry>
        </mxCell>
        <mxCell id="fYd1chfewiqlS_mzUBW2-26" value="plant" style="swimlane;childLayout=stackLayout;horizontal=1;startSize=50;horizontalStack=0;rounded=1;fontSize=14;fontStyle=0;strokeWidth=2;resizeParent=0;resizeLast=1;shadow=0;dashed=0;align=center;arcSize=4;whiteSpace=wrap;html=1;" parent="1" vertex="1">
          <mxGeometry x="345" y="120" width="160" height="120" as="geometry" />
        </mxCell>
        <mxCell id="fYd1chfewiqlS_mzUBW2-27" value="+Initial x1,x2&lt;br&gt;+Initial theta1,theta2,theta3&lt;br&gt;&lt;br&gt;+simulatePlant()" style="align=left;strokeColor=none;fillColor=none;spacingLeft=4;fontSize=12;verticalAlign=top;resizable=0;rotatable=0;part=1;html=1;" parent="fYd1chfewiqlS_mzUBW2-26" vertex="1">
          <mxGeometry y="50" width="160" height="70" as="geometry" />
        </mxCell>
        <mxCell id="yz0OpYYK9XRaNA6aPT4L-1" value="" style="endArrow=none;dashed=1;html=1;dashPattern=1 3;strokeWidth=2;rounded=0;" parent="1" edge="1">
          <mxGeometry width="50" height="50" relative="1" as="geometry">
            <mxPoint x="65" y="280" as="sourcePoint" />
            <mxPoint x="785" y="280" as="targetPoint" />
          </mxGeometry>
        </mxCell>
        <mxCell id="yz0OpYYK9XRaNA6aPT4L-2" value="" style="endArrow=none;dashed=1;html=1;dashPattern=1 3;strokeWidth=2;rounded=0;" parent="1" edge="1">
          <mxGeometry width="50" height="50" relative="1" as="geometry">
            <mxPoint x="65" y="770" as="sourcePoint" />
            <mxPoint x="785" y="770" as="targetPoint" />
          </mxGeometry>
        </mxCell>
        <mxCell id="yz0OpYYK9XRaNA6aPT4L-3" value="Abstraction Level 1" style="text;html=1;strokeColor=none;fillColor=none;align=center;verticalAlign=middle;whiteSpace=wrap;rounded=0;" parent="1" vertex="1">
          <mxGeometry x="65" y="250" width="120" height="30" as="geometry" />
        </mxCell>
        <mxCell id="yz0OpYYK9XRaNA6aPT4L-4" value="Abstraction Level 2" style="text;html=1;strokeColor=none;fillColor=none;align=center;verticalAlign=middle;whiteSpace=wrap;rounded=0;" parent="1" vertex="1">
          <mxGeometry x="65" y="740" width="120" height="30" as="geometry" />
        </mxCell>
        <mxCell id="yz0OpYYK9XRaNA6aPT4L-5" value="" style="endArrow=none;dashed=1;html=1;dashPattern=1 3;strokeWidth=2;rounded=0;" parent="1" edge="1">
          <mxGeometry width="50" height="50" relative="1" as="geometry">
            <mxPoint x="65" y="80" as="sourcePoint" />
            <mxPoint x="785" y="80" as="targetPoint" />
          </mxGeometry>
        </mxCell>
        <mxCell id="yz0OpYYK9XRaNA6aPT4L-6" value="Abstraction Level 0 - Top" style="text;html=1;strokeColor=none;fillColor=none;align=center;verticalAlign=middle;whiteSpace=wrap;rounded=0;" parent="1" vertex="1">
          <mxGeometry x="65" y="50" width="145" height="30" as="geometry" />
        </mxCell>
        <mxCell id="yz0OpYYK9XRaNA6aPT4L-8" value="" style="endArrow=classic;html=1;rounded=0;" parent="1" edge="1">
          <mxGeometry width="50" height="50" relative="1" as="geometry">
            <mxPoint x="720" y="40" as="sourcePoint" />
            <mxPoint x="720" y="320" as="targetPoint" />
          </mxGeometry>
        </mxCell>
        <mxCell id="yz0OpYYK9XRaNA6aPT4L-9" value="Access Direction" style="text;html=1;strokeColor=none;fillColor=none;align=center;verticalAlign=middle;whiteSpace=wrap;rounded=0;" parent="1" vertex="1">
          <mxGeometry x="690" y="10" width="60" height="30" as="geometry" />
        </mxCell>
      </root>
    </mxGraphModel>
  </diagram>
</mxfile>
